<svg width="38" height="45" viewBox="0 0 38 45" fill="none" xmlns="http://www.w3.org/2000/svg">
<path d="M19.9021 35.2333L13.3059 30.3698C12.9061 30.0816 12.5609 29.7119 12.2701 29.2609C11.9794 28.8099 11.7795 28.3329 11.6705 27.83L9.21737 17.0763L4.42016 21.1832L5.72849 27.2355C5.87386 27.848 5.77428 28.4064 5.42975 28.9107C5.08523 29.4151 4.60332 29.7213 3.98405 29.8294C3.36477 29.9375 2.80146 29.8294 2.29412 29.5052C1.78678 29.1809 1.47787 28.7126 1.36739 28.1002L0.11357 22.1019C-0.0681424 21.3453 -0.0317994 20.5981 0.222598 19.8603C0.476996 19.1225 0.894934 18.5007 1.47641 17.9949L9.3264 11.078C10.1623 10.3574 11.1522 10.0599 12.2963 10.1852C13.4404 10.3106 14.5401 10.5902 15.5955 11.0239C16.7584 11.5283 17.9672 11.8885 19.2217 12.1047C20.4763 12.3208 21.7388 12.3389 23.0094 12.1587C23.8816 12.0146 24.7174 11.7624 25.517 11.4022C26.3165 11.0419 27.0797 10.6096 27.8066 10.1053C28.3154 9.745 28.8699 9.59225 29.4703 9.64701C30.0707 9.70177 30.57 9.96259 30.9684 10.4295C31.3667 10.8964 31.5215 11.4281 31.4328 12.0247C31.3441 12.6213 31.044 13.0983 30.5322 13.4557C29.6964 14.0321 28.8423 14.5458 27.9701 14.9968C27.0979 15.4479 26.1712 15.8168 25.1899 16.1036C23.9906 16.4278 22.7826 16.5993 21.5658 16.618C20.3491 16.6367 19.1403 16.5013 17.9396 16.2116L19.466 22.9124L25.735 21.7236C26.3165 21.6155 26.8893 21.6242 27.4533 21.7495C28.0173 21.8749 28.553 22.1184 29.0604 22.4801L37.0739 28.1002C37.5827 28.4604 37.8829 28.9381 37.9745 29.5333C38.0661 30.1284 37.9112 30.6774 37.51 31.1804C37.1466 31.6487 36.6829 31.9283 36.1188 32.019C35.5548 32.1098 35.0191 31.9924 34.5118 31.6667L26.8798 26.3709L19.0298 27.884L22.7368 30.5859C23.3909 31.0903 23.8729 31.7207 24.1825 32.4773C24.4921 33.2338 24.5735 34.0264 24.4267 34.855L22.9003 43.177C22.7913 43.7894 22.4824 44.2671 21.9736 44.6101C21.4648 44.953 20.9015 45.0698 20.2837 44.9602C19.6658 44.8507 19.1934 44.5445 18.8663 44.0416C18.5392 43.5387 18.4302 42.9803 18.5392 42.3664L19.9021 35.2333ZM10.5257 8.64621C9.3264 8.64621 8.30008 8.22327 7.44676 7.37738C6.59344 6.5315 6.16605 5.51341 6.1646 4.32311C6.16314 3.13282 6.59053 2.11545 7.44676 1.27101C8.30299 0.42656 9.3293 0.00289667 10.5257 1.46051e-05C11.7221 -0.00286746 12.7491 0.420796 13.6068 1.27101C14.4645 2.12121 14.8912 3.13858 14.8868 4.32311C14.8824 5.50764 14.4558 6.52573 13.6068 7.37738C12.7579 8.22903 11.7308 8.65198 10.5257 8.64621Z" fill="#4C4C4C"/>
</svg>
