<svg width="42" height="42" viewBox="0 0 42 42" fill="none" xmlns="http://www.w3.org/2000/svg">
<path d="M13.2012 17.4059C13.0154 16.8806 12.6713 16.4257 12.2164 16.1039C11.7615 15.782 11.2181 15.6089 10.6608 15.6085H8.57283C7.97938 15.6084 7.40684 15.8276 6.96517 16.224C6.52351 16.6203 6.24388 17.1659 6.18 17.7559C6.11613 18.3459 6.27251 18.9387 6.61911 19.4204C6.9657 19.9021 7.47807 20.2388 8.05778 20.3657L11.235 21.0617C11.8843 21.2041 12.458 21.5812 12.8463 22.1207C13.2345 22.6602 13.4098 23.324 13.3387 23.9849C13.2675 24.6457 12.9548 25.257 12.4606 25.7014C11.9664 26.1459 11.3255 26.3922 10.6608 26.3931H8.85993C8.30238 26.393 7.75855 26.2201 7.3033 25.8982C6.84805 25.5763 6.50375 25.1213 6.31778 24.5956M35.5777 17.4059C35.3919 16.8806 35.0478 16.4257 34.5929 16.1039C34.138 15.782 33.5946 15.6089 33.0373 15.6085H30.9493C30.3559 15.6084 29.7833 15.8276 29.3417 16.224C28.9 16.6203 28.6204 17.1659 28.5565 17.7559C28.4926 18.3459 28.649 18.9387 28.9956 19.4204C29.3422 19.9021 29.8546 20.2388 30.4343 20.3657L33.6115 21.0617C34.2607 21.2041 34.8345 21.5812 35.2227 22.1207C35.611 22.6602 35.7863 23.324 35.7151 23.9849C35.644 24.6457 35.3313 25.257 34.8371 25.7014C34.3429 26.1459 33.702 26.3922 33.0373 26.3931H31.2382C30.6806 26.393 30.1368 26.2201 29.6815 25.8982C29.2263 25.5763 28.882 25.1213 28.696 24.5956M17.3546 19.2034V22.7982C17.3753 23.7377 17.763 24.6317 18.4348 25.2889C19.1065 25.946 20.0089 26.314 20.9486 26.314C21.8883 26.314 22.7907 25.946 23.4625 25.2889C24.1342 24.6317 24.5219 23.7377 24.5426 22.7982V19.2034C24.5531 18.7247 24.468 18.2488 24.2921 17.8036C24.1162 17.3583 23.8532 16.9527 23.5184 16.6104C23.1836 16.2682 22.7838 15.9963 22.3426 15.8107C21.9013 15.625 21.4274 15.5294 20.9486 15.5294C20.4699 15.5294 19.996 15.625 19.5547 15.8107C19.1134 15.9963 18.7136 16.2682 18.3789 16.6104C18.0441 16.9527 17.781 17.3583 17.6052 17.8036C17.4293 18.2488 17.3441 18.7247 17.3546 19.2034Z" stroke="#494949" stroke-width="3" stroke-linecap="round" stroke-linejoin="round"/>
<path d="M4.99281 2H37.0072C37.0072 2 40 2 40 4.99281V37.0072C40 37.0072 40 40 37.0072 40H4.99281C4.99281 40 2 40 2 37.0072V4.99281C2 4.99281 2 2 4.99281 2Z" stroke="#494949" stroke-width="3" stroke-linecap="round" stroke-linejoin="round"/>
</svg>
