<svg width="17" height="17" viewBox="0 0 17 17" fill="none" xmlns="http://www.w3.org/2000/svg">
<path d="M9.76609 1.1991C9.68368 0.843491 9.47832 0.528422 9.18623 0.309487C8.89415 0.0905511 8.53411 -0.0181784 8.16967 0.00248466C7.80523 0.0231477 7.45979 0.171875 7.19433 0.422422C6.92886 0.67297 6.76042 1.00923 6.71874 1.37187C6.67705 1.73452 6.7648 2.10023 6.96649 2.40447C7.16819 2.70872 7.47086 2.93195 7.82112 3.03476C8.17136 3.13758 8.54668 3.11338 8.88082 2.96642C9.21496 2.81947 9.48646 2.55922 9.64741 2.23159C10.6272 2.4547 11.538 2.91279 12.3012 3.56637C13.0645 4.21994 13.6573 5.04938 14.0286 5.98314L14.9732 5.61165C14.5359 4.50412 13.8318 3.52179 12.9234 2.75198C12.0149 1.98217 10.9304 1.44874 9.76609 1.1991ZM8.26419 2.07086C8.19504 2.07308 8.12614 2.06138 8.0616 2.03645C7.99706 2.01152 7.93819 1.97387 7.88848 1.92573C7.83878 1.8776 7.79926 1.81997 7.77227 1.75626C7.74528 1.69255 7.73137 1.62407 7.73137 1.55488C7.73137 1.48569 7.74528 1.41721 7.77227 1.3535C7.79926 1.28979 7.83878 1.23216 7.88848 1.18403C7.93819 1.13589 7.99706 1.09824 8.0616 1.07331C8.12614 1.04838 8.19504 1.03668 8.26419 1.0389C8.40111 1.0389 8.53242 1.09329 8.62923 1.19011C8.72604 1.28692 8.78044 1.41823 8.78044 1.55515C8.78044 1.69206 8.72604 1.82337 8.62923 1.92019C8.53242 2.017 8.40111 2.07086 8.26419 2.07086ZM5.99325 2.49982L5.61165 1.55568C4.50412 1.99297 3.52179 2.69713 2.75198 3.60556C1.98217 4.51399 1.44874 5.59855 1.1991 6.76283C0.843491 6.84523 0.528422 7.0506 0.309487 7.34268C0.0905511 7.63477 -0.0181784 7.9948 0.00248466 8.35924C0.0231477 8.72369 0.171875 9.06912 0.422422 9.33459C0.67297 9.60005 1.00923 9.76849 1.37187 9.81018C1.73452 9.85186 2.10023 9.76412 2.40447 9.56242C2.70872 9.36073 2.93195 9.05805 3.03476 8.7078C3.13758 8.35755 3.11338 7.98224 2.96642 7.6481C2.81947 7.31395 2.55922 7.04245 2.23159 6.88151C2.45561 5.90058 2.9152 4.98898 3.57062 4.22553C4.22603 3.46209 5.05754 2.86978 5.99325 2.49982ZM1.55461 8.78097C1.48682 8.78097 1.41969 8.76762 1.35706 8.74167C1.29442 8.71573 1.23751 8.6777 1.18957 8.62976C1.14164 8.58183 1.10361 8.52492 1.07767 8.46228C1.05172 8.39965 1.03837 8.33252 1.03837 8.26472C1.03837 8.19693 1.05172 8.1298 1.07767 8.06717C1.10361 8.00453 1.14164 7.94762 1.18957 7.89968C1.23751 7.85175 1.29442 7.81372 1.35706 7.78778C1.41969 7.76183 1.48682 7.74848 1.55461 7.74848C1.69153 7.74848 1.82284 7.80287 1.91965 7.89968C2.01647 7.9965 2.07086 8.12781 2.07086 8.26472C2.07086 8.40164 2.01647 8.53295 1.91965 8.62976C1.82284 8.72658 1.69153 8.78097 1.55461 8.78097ZM8.26419 13.4256C7.97628 13.4265 7.69432 13.5077 7.44999 13.66C7.20565 13.8123 7.00861 14.0297 6.88098 14.2878C5.90105 14.0647 4.99011 13.6065 4.22675 12.9528C3.46338 12.2992 2.87052 11.4696 2.49929 10.5357L1.55515 10.9173C1.99386 12.0267 2.70038 13.0102 3.61166 13.7802C4.52294 14.5501 5.61065 15.0825 6.77773 15.3298C6.84477 15.6139 6.99075 15.8733 7.19884 16.0781C7.40693 16.2829 7.66865 16.4246 7.95383 16.4871C8.239 16.5495 8.53602 16.5301 8.81063 16.431C9.08524 16.3319 9.32626 16.1573 9.50589 15.9271C9.68552 15.697 9.79646 15.4208 9.8259 15.1304C9.85535 14.8399 9.8021 14.5471 9.67231 14.2856C9.54251 14.0241 9.34145 13.8046 9.09231 13.6524C8.84317 13.5003 8.5561 13.4216 8.26419 13.4256ZM8.26419 15.49C8.12727 15.49 7.99597 15.4356 7.89915 15.3388C7.80234 15.242 7.74795 15.1107 7.74795 14.9738C7.74795 14.8369 7.80234 14.7055 7.89915 14.6087C7.99597 14.5119 8.12727 14.4575 8.26419 14.4575C8.40111 14.4575 8.53242 14.5119 8.62923 14.6087C8.72604 14.7055 8.78044 14.8369 8.78044 14.9738C8.78044 15.1107 8.72604 15.242 8.62923 15.3388C8.53242 15.4356 8.40111 15.49 8.26419 15.49ZM16.5214 8.26419C16.5224 7.98786 16.4494 7.71631 16.31 7.47771C16.1706 7.2391 15.9699 7.04214 15.7287 6.90724C15.4876 6.77235 15.2147 6.70444 14.9384 6.71055C14.6622 6.71667 14.3926 6.79658 14.1576 6.94202C13.9227 7.08745 13.7309 7.2931 13.6022 7.53764C13.4735 7.78217 13.4126 8.05669 13.4257 8.33271C13.4389 8.60873 13.5257 8.87619 13.6771 9.10737C13.8285 9.33854 14.0389 9.525 14.2867 9.64741C14.0635 10.6272 13.6053 11.5381 12.9517 12.3013C12.298 13.0646 11.4685 13.6574 10.5346 14.0286L10.9167 14.9732C12.0261 14.5345 13.0097 13.828 13.7796 12.9167C14.5496 12.0054 15.082 10.9177 15.3293 9.75066C15.6652 9.6712 15.965 9.48178 16.181 9.21246C16.397 8.94315 16.5168 8.60939 16.5214 8.26419ZM14.9727 8.78044C14.8358 8.78044 14.7045 8.72605 14.6077 8.62923C14.5108 8.53242 14.4565 8.40111 14.4565 8.26419C14.4565 8.12728 14.5108 7.99597 14.6077 7.89915C14.7045 7.80234 14.8358 7.74795 14.9727 7.74795C15.1096 7.74795 15.2409 7.80234 15.3377 7.89915C15.4346 7.99597 15.4889 8.12728 15.4889 8.26419C15.4889 8.40111 15.4346 8.53242 15.3377 8.62923C15.2409 8.72605 15.1096 8.78044 14.9727 8.78044Z" fill="#4C4C4C"/>
<path d="M9.70391 8.19227C9.99755 7.90555 10.1991 7.53781 10.2827 7.13603C10.3664 6.73424 10.3284 6.31664 10.1736 5.93655C10.0188 5.55645 9.75423 5.23112 9.41367 5.0021C9.07311 4.77308 8.67202 4.65076 8.26162 4.65076C7.85122 4.65076 7.45013 4.77308 7.10957 5.0021C6.76901 5.23112 6.50445 5.55645 6.34965 5.93655C6.19486 6.31664 6.15687 6.73424 6.24052 7.13603C6.32418 7.53781 6.5257 7.90555 6.81933 8.19227C6.46989 8.42846 6.18366 8.74669 5.98566 9.11911C5.78767 9.49152 5.68396 9.90679 5.68359 10.3286V11.3605H10.8444V10.328C10.8435 9.90582 10.7391 9.49028 10.5403 9.11783C10.3414 8.74538 10.0542 8.42792 9.70391 8.19227ZM7.23179 6.71538C7.23179 6.5798 7.2585 6.44554 7.31039 6.32027C7.36228 6.195 7.43833 6.08118 7.5342 5.98531C7.63008 5.88943 7.7439 5.81338 7.86917 5.76149C7.99443 5.7096 8.12869 5.6829 8.26428 5.6829C8.39987 5.6829 8.53413 5.7096 8.6594 5.76149C8.78467 5.81338 8.89849 5.88943 8.99436 5.98531C9.09024 6.08118 9.16629 6.195 9.21818 6.32027C9.27006 6.44554 9.29677 6.5798 9.29677 6.71538C9.29677 6.98922 9.18799 7.25184 8.99436 7.44546C8.80073 7.63909 8.53812 7.74787 8.26428 7.74787C7.99045 7.74787 7.72783 7.63909 7.5342 7.44546C7.34057 7.25184 7.23179 6.98922 7.23179 6.71538ZM6.71555 10.328C6.71174 10.1223 6.74897 9.91781 6.82507 9.7266C6.90118 9.53539 7.01463 9.36126 7.15879 9.2144C7.30296 9.06754 7.47495 8.95088 7.66472 8.87124C7.85448 8.79161 8.05822 8.75059 8.26402 8.75059C8.46982 8.75059 8.67355 8.79161 8.86331 8.87124C9.05308 8.95088 9.22507 9.06754 9.36924 9.2144C9.51341 9.36126 9.62686 9.53539 9.70296 9.7266C9.77906 9.91781 9.8163 10.1223 9.81248 10.328H6.71555Z" fill="#4C4C4C"/>
</svg>
